<svg width="246" height="19" viewBox="0 0 246 19" fill="none" xmlns="http://www.w3.org/2000/svg">
<path d="M6.4 0.959999H11.632L17.056 18H12.304L11.272 14.664H6.736L5.728 18H0.952L6.4 0.959999ZM10.528 11.544L9.016 5.544L7.432 11.544H10.528ZM31.3598 18V9.024L28.5038 15.336H26.0078L23.1518 9.024V18H18.4718V0.959999H23.5838L27.2558 8.976L30.9518 0.959999H36.0398V18H31.3598ZM42.8922 0.959999H48.1242L53.5482 18H48.7962L47.7642 14.664H43.2282L42.2202 18H37.4442L42.8922 0.959999ZM47.0202 11.544L45.5082 5.544L43.9242 11.544H47.0202ZM54.148 14.52L61.876 5.04H54.508V0.959999H67.516V4.44L60.268 13.92H67.66V18H54.148V14.52ZM69.8937 18V0.959999H74.5737V18H69.8937ZM82.1909 9.624V18H77.5109V0.959999H81.1589L87.9989 9.624V0.959999H92.6789V18H88.9589L82.1909 9.624ZM102.973 18.12C101.869 18.12 100.813 17.928 99.8046 17.544C98.8126 17.144 97.9326 16.568 97.1646 15.816C96.3966 15.048 95.7886 14.128 95.3406 13.056C94.9086 11.968 94.6926 10.728 94.6926 9.336C94.6926 8.136 94.9166 7.024 95.3646 6C95.8126 4.976 96.4286 4.08 97.2126 3.312C98.0126 2.528 98.9406 1.92 99.9966 1.488C101.053 1.056 102.197 0.839999 103.429 0.839999C104.965 0.839999 106.357 1.176 107.605 1.848C108.853 2.504 109.781 3.408 110.389 4.56L106.909 7.224C106.573 6.552 106.069 6.016 105.397 5.616C104.725 5.2 104.013 4.992 103.261 4.992C102.525 4.992 101.869 5.184 101.293 5.568C100.717 5.952 100.261 6.488 99.9246 7.176C99.6046 7.848 99.4446 8.624 99.4446 9.504C99.4446 10.832 99.8046 11.912 100.525 12.744C101.261 13.56 102.213 13.968 103.381 13.968C104.709 13.968 105.909 13.408 106.981 12.288H104.029V8.928H111.037V18H107.173V16.584C105.957 17.608 104.557 18.12 102.973 18.12ZM131.625 18V9.024L128.769 15.336H126.273L123.417 9.024V18H118.737V0.959999H123.849L127.521 8.976L131.217 0.959999H136.305V18H131.625ZM146.902 18.144C145.606 18.144 144.43 17.904 143.374 17.424C142.318 16.928 141.406 16.272 140.638 15.456C139.886 14.624 139.302 13.696 138.886 12.672C138.486 11.632 138.286 10.56 138.286 9.456C138.286 8.32 138.502 7.24 138.934 6.216C139.366 5.192 139.966 4.28 140.734 3.48C141.518 2.664 142.438 2.024 143.494 1.56C144.566 1.096 145.734 0.863999 146.998 0.863999C148.294 0.863999 149.47 1.112 150.526 1.608C151.582 2.088 152.486 2.744 153.238 3.576C153.99 4.408 154.566 5.344 154.966 6.384C155.382 7.408 155.59 8.464 155.59 9.552C155.59 10.672 155.374 11.744 154.942 12.768C154.526 13.792 153.926 14.712 153.142 15.528C152.374 16.328 151.462 16.968 150.406 17.448C149.35 17.912 148.182 18.144 146.902 18.144ZM143.038 9.504C143.038 10.256 143.174 10.976 143.446 11.664C143.734 12.352 144.166 12.912 144.742 13.344C145.334 13.776 146.07 13.992 146.95 13.992C147.862 13.992 148.598 13.768 149.158 13.32C149.734 12.872 150.158 12.304 150.43 11.616C150.702 10.912 150.838 10.192 150.838 9.456C150.838 8.688 150.694 7.968 150.406 7.296C150.118 6.624 149.686 6.08 149.11 5.664C148.534 5.232 147.806 5.016 146.926 5.016C146.03 5.016 145.294 5.24 144.718 5.688C144.142 6.12 143.718 6.68 143.446 7.368C143.174 8.04 143.038 8.752 143.038 9.504ZM165.013 18.144C163.653 18.144 162.485 17.92 161.509 17.472C160.533 17.024 159.733 16.408 159.109 15.624C158.501 14.84 158.053 13.944 157.765 12.936C157.477 11.912 157.333 10.84 157.333 9.72V0.959999H162.013V9.72C162.013 10.472 162.109 11.176 162.301 11.832C162.509 12.472 162.829 12.992 163.261 13.392C163.709 13.792 164.293 13.992 165.013 13.992C165.749 13.992 166.333 13.792 166.765 13.392C167.213 12.976 167.533 12.448 167.725 11.808C167.933 11.152 168.037 10.456 168.037 9.72V0.959999H172.717V9.72C172.717 11.304 172.437 12.736 171.877 14.016C171.333 15.28 170.493 16.288 169.357 17.04C168.221 17.776 166.773 18.144 165.013 18.144ZM180.089 9.624V18H175.409V0.959999H179.057L185.897 9.624V0.959999H190.577V18H186.857L180.089 9.624ZM206.775 5.04H201.879V18H197.199V5.04H192.279V0.959999H206.775V5.04ZM210.845 0.959999H216.077L221.501 18H216.749L215.717 14.664H211.181L210.173 18H205.397L210.845 0.959999ZM214.973 11.544L213.461 5.544L211.877 11.544H214.973ZM222.917 18V0.959999H227.597V18H222.917ZM235.214 9.624V18H230.534V0.959999H234.182L241.022 9.624V0.959999H245.702V18H241.982L235.214 9.624Z" fill="black"/>
</svg>
