<svg width="50" height="40" viewBox="0 0 50 40" fill="none" xmlns="http://www.w3.org/2000/svg">
<path d="M44.9375 25.4403C44.9531 25.2919 45 25.1513 45 25.0029C45 22.2457 42.7578 20.0039 40 20.0039C39.0156 20.0039 38.1094 20.3007 37.3359 20.785C35.9609 17.7543 32.9219 15.6298 29.375 15.6298C24.5469 15.6298 20.625 19.5431 20.625 24.3781C20.625 24.6124 20.6797 24.8311 20.6953 25.0576C16.8203 25.3466 13.75 28.5491 13.75 32.5015C13.75 36.6413 17.1094 40 21.25 40H42.5C46.6406 40 50 36.6413 50 32.5015C50 29.213 47.875 26.4558 44.9375 25.4403V25.4403ZM11.3125 23.6751C7.89844 20.2617 7.89844 14.7159 11.3125 11.3103C14.7266 7.8969 20.2734 7.8969 23.6875 11.3103C24.4453 12.068 25.0078 12.9428 25.4297 13.8645C26.1953 13.5755 27 13.3958 27.8281 13.2787L30.1562 6.3347C30.4688 5.40519 29.5859 4.53037 28.6562 4.83499L21.7969 7.12361L18.5547 0.656122C18.125 -0.218707 16.875 -0.218707 16.4375 0.656122L13.2031 7.12361L6.33594 4.83499C5.41406 4.53037 4.53125 5.41301 4.83594 6.3347L7.125 13.1927L0.65625 16.4343C-0.21875 16.8717 -0.21875 18.1137 0.65625 18.5511L7.125 21.7848L4.83594 28.6428C4.52344 29.5724 5.40625 30.4472 6.33594 30.1426L12.2812 28.1664C12.7578 27.1978 13.375 26.3152 14.125 25.5497C13.1016 25.1279 12.1406 24.503 11.3125 23.6751V23.6751ZM10.9375 17.4888C10.9375 20.6756 13.2266 23.3314 16.2422 23.9172C16.8672 23.5501 17.5156 23.2298 18.2109 23.0033C18.6328 19.5431 20.6328 16.5593 23.4766 14.8018C22.4453 12.5288 20.1562 10.9354 17.5 10.9354C13.8828 10.9354 10.9375 13.8723 10.9375 17.4888V17.4888Z" fill="white"/>
</svg>
